<?xml version="1.0" encoding="UTF-8" standalone="no"?>
<svg width="90px" height="50px" viewBox="0 0 90 90" version="1.1" xmlns="http://www.w3.org/2000/svg" xmlns:xlink="http://www.w3.org/1999/xlink">
    <!-- Generator: Sketch 50.2 (55047) - http://www.bohemiancoding.com/sketch -->
    <title>grandma</title>
    <desc>Created with Sketch.</desc>
    <defs></defs>
    <g id="Page-1" stroke="none" stroke-width="1" fill="none" fill-rule="evenodd">
        <g id="Group" transform="translate(3.000000, 3.000000)">
            <path d="M42,84 C18.8040405,84 0,65.1959595 0,42 C0,18.8040405 18.8040405,0 42,0 C65.1959595,0 84,18.8040405 84,42 C84,65.1959595 65.1959595,84 42,84 Z M42,62 C52.4934102,62 61,53.045695 61,42 C61,30.954305 52.4934102,22 42,22 C31.5065898,22 23,30.954305 23,42 C23,53.045695 31.5065898,62 42,62 Z" id="Combined-Shape" stroke="#B87D4B" stroke-width="5" fill="#FCCCFA"></path>
            <path d="M44.5,13.5 L58,20" id="Line" stroke="#814237" stroke-width="4" stroke-linecap="square"></path>
            <path d="M68.5,29.5 L68.5,44" id="Line-Copy-3" stroke="#814237" stroke-width="4" stroke-linecap="square"></path>
            <path d="M15.5,29.5 L15.5,44" id="Line-Copy-4" stroke="#814237" stroke-width="4" stroke-linecap="square"></path>
            <path d="M18.5,52.5 L24,61" id="Line-Copy-5" stroke="#814237" stroke-width="4" stroke-linecap="square"></path>
            <path d="" id="Line-Copy-6" stroke="#814237" stroke-width="4" stroke-linecap="square"></path>
            <path d="M70.0725464,56 L60,66.4304271" id="Line-Copy-8" stroke="#814237" stroke-width="4" stroke-linecap="square"></path>
            <path d="M47,70 L34,70" id="Line-Copy-9" stroke="#814237" stroke-width="4" stroke-linecap="square"></path>
            <path d="M24,19 L30.3567257,11.9037333" id="Line-Copy" stroke="#814237" stroke-width="4" stroke-linecap="square"></path>
        </g>
    </g>
</svg>